<svg width="43" height="40" viewBox="0 0 43 40" fill="none" xmlns="http://www.w3.org/2000/svg">
<path d="M8.75 6.25H31.325V36.1625H8.75V6.25Z" stroke="white" stroke-linecap="round" stroke-linejoin="round"/>
<path d="M18.775 14.5625H27.975M18.775 21.2125H27.975M18.775 27.85H27.975M12.925 12.9H16.2625V16.225H12.925V12.9ZM12.925 19.55H16.2625V22.875H12.925V19.55ZM12.925 26.1875H16.2625V29.5125H12.925V26.1875Z" stroke="white" stroke-linecap="round" stroke-linejoin="round"/>
<path d="M13.375 13.725L15.1125 15.45L19.1625 11.425" stroke="white" stroke-linecap="round" stroke-linejoin="round"/>
<rect x="27" y="24" width="16" height="16" rx="8" fill="#C16C2C"/>
<path d="M34.9999 25.2307C31.2461 25.2307 28.2307 28.2461 28.2307 31.9999C28.2307 35.7538 31.2461 38.7692 34.9999 38.7692C38.7538 38.7692 41.7692 35.7538 41.7692 31.9999C41.7692 28.2461 38.7538 25.2307 34.9999 25.2307ZM38.0769 33.2307H36.2307V35.0769C36.2307 35.7538 35.6769 36.3076 34.9999 36.3076C34.323 36.3076 33.7692 35.7538 33.7692 35.0769V33.2307H31.923C31.2461 33.2307 30.6923 32.6769 30.6923 31.9999C30.6923 31.323 31.2461 30.7692 31.923 30.7692H33.7692V28.923C33.7692 28.2461 34.323 27.6923 34.9999 27.6923C35.6769 27.6923 36.2307 28.2461 36.2307 28.923V30.7692H38.0769C38.7538 30.7692 39.3076 31.323 39.3076 31.9999C39.3076 32.6769 38.7538 33.2307 38.0769 33.2307Z" fill="white"/>
</svg>
