<svg width="33" height="30" viewBox="0 0 33 30" fill="none" xmlns="http://www.w3.org/2000/svg">
<path d="M23.25 25.3125H6.75C5.625 25.3125 4.6875 24.375 4.6875 23.25V8.10937C4.6875 6.98437 5.4375 6.04688 6.42188 6.04688H7.45312V7.40625H6.42188C6.28125 7.40625 6.09375 7.6875 6.09375 8.10937V23.25C6.09375 23.625 6.42188 23.9531 6.79688 23.9531H23.2969C23.6719 23.9531 24 23.625 24 23.25V8.10937C24 7.6875 23.7656 7.40625 23.6719 7.40625H22.6406V6.04688H23.6719C24.6094 6.04688 25.4063 6.98437 25.4063 8.10937V23.25C25.3125 24.375 24.375 25.3125 23.25 25.3125Z" fill="white"/>
<path d="M9.51563 8.8125C9.14063 8.8125 8.8125 8.48437 8.8125 8.10937V5.34375C8.8125 4.96875 9.14063 4.64062 9.51563 4.64062C9.89063 4.64062 10.2188 4.96875 10.2188 5.34375V8.10937C10.1719 8.48437 9.89063 8.8125 9.51563 8.8125ZM20.4844 8.8125C20.1094 8.8125 19.7813 8.48437 19.7813 8.10937V5.34375C19.7813 4.96875 20.1094 4.64062 20.4844 4.64062C20.8594 4.64062 21.1875 4.96875 21.1875 5.34375V8.10937C21.1875 8.48437 20.8594 8.8125 20.4844 8.8125ZM11.5781 6.04688H18.4219V7.45312H11.5781V6.04688ZM6.04688 10.1719H23.9531V11.5781H6.04688V10.1719ZM21.1875 12.9375H22.5469V14.2969H21.1875V12.9375ZM18.4219 12.9375H19.8281V14.2969H18.4219V12.9375ZM15.7031 12.9375H17.0625V14.2969H15.7031V12.9375ZM12.9375 12.9375H14.2969V14.2969H12.9375V12.9375ZM10.1719 12.9375H11.5781V14.2969H10.1719V12.9375ZM21.1875 15.7031H22.5469V17.0625H21.1875V15.7031ZM18.4219 15.7031H19.8281V17.0625H18.4219V15.7031ZM15.7031 15.7031H17.0625V17.0625H15.7031V15.7031ZM12.9375 15.7031H14.2969V17.0625H12.9375V15.7031ZM10.1719 15.7031H11.5781V17.0625H10.1719V15.7031ZM7.45313 15.7031H8.8125V17.0625H7.45313V15.7031ZM21.1875 18.4219H22.5469V19.8281H21.1875V18.4219ZM18.4219 18.4219H19.8281V19.8281H18.4219V18.4219ZM15.7031 18.4219H17.0625V19.8281H15.7031V18.4219ZM12.9375 18.4219H14.2969V19.8281H12.9375V18.4219ZM10.1719 18.4219H11.5781V19.8281H10.1719V18.4219ZM7.45313 18.4219H8.8125V19.8281H7.45313V18.4219ZM18.4219 21.1875H19.8281V22.5469H18.4219V21.1875ZM15.7031 21.1875H17.0625V22.5469H15.7031V21.1875ZM12.9375 21.1875H14.2969V22.5469H12.9375V21.1875ZM10.1719 21.1875H11.5781V22.5469H10.1719V21.1875ZM7.45313 21.1875H8.8125V22.5469H7.45313V21.1875Z" fill="white"/>
<rect x="21" y="17.25" width="12" height="12" rx="6" fill="#C16C2C"/>
<g clip-path="url(#clip0_63_104)">
<path d="M27 18.1731C24.1846 18.1731 21.9231 20.4346 21.9231 23.25C21.9231 26.0654 24.1846 28.3269 27 28.3269C29.8154 28.3269 32.0769 26.0654 32.0769 23.25C32.0769 20.4346 29.8154 18.1731 27 18.1731ZM29.3077 24.1731H27.9231V25.5577C27.9231 26.0654 27.5077 26.4808 27 26.4808C26.4923 26.4808 26.0769 26.0654 26.0769 25.5577V24.1731H24.6923C24.1846 24.1731 23.7692 23.7577 23.7692 23.25C23.7692 22.7423 24.1846 22.3269 24.6923 22.3269H26.0769V20.9423C26.0769 20.4346 26.4923 20.0192 27 20.0192C27.5077 20.0192 27.9231 20.4346 27.9231 20.9423V22.3269H29.3077C29.8154 22.3269 30.2308 22.7423 30.2308 23.25C30.2308 23.7577 29.8154 24.1731 29.3077 24.1731Z" fill="white"/>
</g>
<defs>
<clipPath id="clip0_63_104">
<rect width="11.0769" height="11.0769" fill="white" transform="translate(21.4615 17.7115)"/>
</clipPath>
</defs>
</svg>
