<svg width="36" height="36" viewBox="0 0 36 36" fill="none" xmlns="http://www.w3.org/2000/svg">
<path d="M2.24999 34.875C2.09124 34.8759 1.93408 34.8433 1.78885 34.7792C1.64361 34.7151 1.51359 34.621 1.40733 34.503C1.30107 34.3851 1.22098 34.246 1.17232 34.0948C1.12366 33.9437 1.10753 33.784 1.12499 33.6262L2.13749 24.435C2.16587 24.1793 2.28102 23.9411 2.46374 23.76L23.9287 2.30624C24.301 1.93174 24.7435 1.63453 25.2311 1.43173C25.7186 1.22892 26.2414 1.12451 26.7694 1.12451C27.2974 1.12451 27.8202 1.22892 28.3077 1.43173C28.7952 1.63453 29.2378 1.93174 29.61 2.30624L33.75 6.38999C34.1245 6.7622 34.4217 7.20479 34.6245 7.6923C34.8273 8.17981 34.9317 8.7026 34.9317 9.23061C34.9317 9.75862 34.8273 10.2814 34.6245 10.7689C34.4217 11.2564 34.1245 11.699 33.75 12.0712L12.24 33.525C12.0589 33.7077 11.8207 33.8229 11.565 33.8512L2.37374 34.875H2.24999ZM4.34249 25.065L3.52124 32.4787L10.935 31.6575L32.1075 10.4737C32.4359 10.1411 32.62 9.69244 32.62 9.22499C32.62 8.75754 32.4359 8.3089 32.1075 7.97624L28.0237 3.89249C27.6911 3.56409 27.2424 3.37995 26.775 3.37995C26.3075 3.37995 25.8589 3.56409 25.5262 3.89249L4.34249 25.065Z" fill="white"/>
<path d="M29.835 15.4575C29.5399 15.4563 29.257 15.3391 29.0475 15.1313L20.8687 6.95252C20.7646 6.84541 20.6825 6.71884 20.6273 6.58002C20.5721 6.44121 20.5447 6.29287 20.5468 6.14349C20.5489 5.9941 20.5804 5.84659 20.6395 5.70937C20.6986 5.57216 20.7841 5.44793 20.8912 5.34377C20.9983 5.23962 21.1249 5.15758 21.2637 5.10234C21.4025 5.04711 21.5509 5.01975 21.7003 5.02184C21.8497 5.02393 21.9972 5.05542 22.1344 5.11452C22.2716 5.17362 22.3958 5.25916 22.5 5.36627L30.6337 13.5C30.8433 13.7108 30.9609 13.9959 30.9609 14.2931C30.9609 14.5904 30.8433 14.8755 30.6337 15.0863C30.5324 15.1987 30.4095 15.2895 30.2722 15.3533C30.135 15.4171 29.9863 15.4526 29.835 15.4575Z" fill="white"/>
<path d="M10.6467 23.7598L20.8609 13.5456L22.4519 15.1366L12.2377 25.3508L10.6467 23.7598Z" fill="white"/>
</svg>
