<svg width="37" height="36" viewBox="0 0 37 36" fill="none" xmlns="http://www.w3.org/2000/svg">
<path d="M29.5345 11.775C34.4193 6.3 32.6533 4.3875 32.6533 4.3875C32.0521 3.7875 31.1128 3.7875 30.5115 4.3875L16.2703 18.6L3.87031 30.15C3.00606 31.0125 3.00606 32.4375 3.87031 33.3375C4.73455 34.2 6.16242 34.2 7.06424 33.3375L18.3746 20.9625C18.9382 21.225 20.4412 21.975 20.8922 21.4875L29.5345 11.775Z" fill="white"/>
<path d="M33.3673 30.15L23.4849 20.8125L21.9819 22.5C21.7188 22.7625 21.2679 23.1 20.554 23.1375L30.2109 33.3375C31.1128 34.2 32.5406 34.2 33.4049 33.3375C34.2315 32.4375 34.2315 31.0125 33.3673 30.15Z" fill="white"/>
<path d="M13.4897 17.85C13.4897 17.85 14.1661 17.7 14.9176 17.8125L15.2182 17.5125L17.8109 14.925C17.6982 14.2125 17.8485 13.5 17.8485 13.5C18.1115 11.8875 17.4728 10.0125 15.5564 8.10002C12.4 4.95002 7.89089 2.02502 7.89089 2.02502L7.21455 2.70002L14.8048 10.275C15.0303 10.5 15.0303 10.8375 14.8048 11.0625C14.5794 11.2875 14.2412 11.2875 14.0157 11.0625L6.42546 3.48752L5.37334 4.53752L12.9637 12.1125C13.1891 12.3375 13.1891 12.675 12.9637 12.9C12.7382 13.125 12.4 13.125 12.1746 12.9L4.58424 5.32502L3.53212 6.37502L11.1224 13.95C11.3479 14.175 11.3479 14.5125 11.1224 14.7375C10.897 14.9625 10.5588 14.9625 10.3333 14.7375L2.70546 7.20002L2.0291 7.875C2.0291 7.875 5.22304 12.675 8.07876 15.5625C9.99514 17.475 11.874 18.1125 13.4897 17.85Z" fill="white"/>
</svg>
