<svg width="36" height="36" viewBox="0 0 36 36" fill="none" xmlns="http://www.w3.org/2000/svg">
<path d="M27.9 30.375H8.1C6.75 30.375 5.625 29.25 5.625 27.9V9.73122C5.625 8.38122 6.525 7.25623 7.70625 7.25623H8.94375V8.88747H7.70625C7.5375 8.88747 7.3125 9.22497 7.3125 9.73122V27.9C7.3125 28.35 7.70625 28.7437 8.15625 28.7437H27.9563C28.4062 28.7437 28.8 28.35 28.8 27.9V9.73122C28.8 9.22497 28.5187 8.88747 28.4062 8.88747H27.1687V7.25623H28.4062C29.5312 7.25623 30.4875 8.38122 30.4875 9.73122V27.9C30.375 29.25 29.25 30.375 27.9 30.375Z" fill="white"/>
<path d="M11.4187 10.575C10.9687 10.575 10.575 10.1812 10.575 9.73122V6.41248C10.575 5.96248 10.9687 5.56873 11.4187 5.56873C11.8687 5.56873 12.2625 5.96248 12.2625 6.41248V9.73122C12.2062 10.1812 11.8687 10.575 11.4187 10.575ZM24.5812 10.575C24.1312 10.575 23.7375 10.1812 23.7375 9.73122V6.41248C23.7375 5.96248 24.1312 5.56873 24.5812 5.56873C25.0312 5.56873 25.425 5.96248 25.425 6.41248V9.73122C25.425 10.1812 25.0312 10.575 24.5812 10.575ZM13.8937 7.25623H22.1062V8.94373H13.8937V7.25623ZM7.25625 12.2062H28.7437V13.8937H7.25625V12.2062ZM25.425 15.525H27.0562V17.1562H25.425V15.525ZM22.1062 15.525H23.7937V17.1562H22.1062V15.525ZM18.8437 15.525H20.475V17.1562H18.8437V15.525ZM15.525 15.525H17.1562V17.1562H15.525V15.525ZM12.2062 15.525H13.8937V17.1562H12.2062V15.525ZM25.425 18.8437H27.0562V20.475H25.425V18.8437ZM22.1062 18.8437H23.7937V20.475H22.1062V18.8437ZM18.8437 18.8437H20.475V20.475H18.8437V18.8437ZM15.525 18.8437H17.1562V20.475H15.525V18.8437ZM12.2062 18.8437H13.8937V20.475H12.2062V18.8437ZM8.94375 18.8437H10.575V20.475H8.94375V18.8437ZM25.425 22.1062H27.0562V23.7937H25.425V22.1062ZM22.1062 22.1062H23.7937V23.7937H22.1062V22.1062ZM18.8437 22.1062H20.475V23.7937H18.8437V22.1062ZM15.525 22.1062H17.1562V23.7937H15.525V22.1062ZM12.2062 22.1062H13.8937V23.7937H12.2062V22.1062ZM8.94375 22.1062H10.575V23.7937H8.94375V22.1062ZM22.1062 25.425H23.7937V27.0562H22.1062V25.425ZM18.8437 25.425H20.475V27.0562H18.8437V25.425ZM15.525 25.425H17.1562V27.0562H15.525V25.425ZM12.2062 25.425H13.8937V27.0562H12.2062V25.425ZM8.94375 25.425H10.575V27.0562H8.94375V25.425Z" fill="white"/>
</svg>
