<svg width="36" height="36" viewBox="0 0 36 36" fill="none" xmlns="http://www.w3.org/2000/svg">
<path d="M18 31.4438C10.575 31.4438 4.55625 25.425 4.55625 18C4.55625 10.575 10.575 4.55627 18 4.55627C25.425 4.55627 31.4437 10.575 31.4437 18C31.4437 25.425 25.425 31.4438 18 31.4438ZM18 6.01878C11.4187 6.01878 6.01875 11.4188 6.01875 18C6.01875 24.5813 11.4187 29.9813 18 29.9813C24.5812 29.9813 29.9813 24.5813 29.9813 18C29.9813 11.4188 24.5812 6.01878 18 6.01878Z" fill="white"/>
<path d="M10.125 27.7313L8.775 27.1125C9.16875 26.1563 10.4062 25.65 11.8125 25.0313C13.1625 24.4125 14.85 23.6813 14.85 22.7813V21.5438C14.3437 21.15 13.5562 20.25 13.4437 18.9563C13.05 18.5625 12.4313 17.8313 12.4313 16.9313C12.4313 16.3688 12.6562 15.9188 12.825 15.6375C12.7125 15.0188 12.4875 13.7813 12.4875 12.825C12.4875 9.73129 14.625 7.7063 18 7.7063C18.9562 7.7063 20.1375 7.98754 20.7562 8.66254C22.275 8.94379 23.5125 10.7438 23.5125 12.825C23.5125 14.175 23.2875 15.3 23.1188 15.8063C23.2875 16.0875 23.4562 16.4813 23.4562 16.9313C23.4562 18 22.95 18.675 22.4437 19.0125C22.3312 20.3063 21.6 21.15 21.15 21.5438V22.7813C21.15 23.5688 22.5562 24.075 23.85 24.5813C25.3687 25.1438 26.9438 25.7063 27.45 27L26.0438 27.5063C25.8188 26.8313 24.4687 26.3813 23.3437 25.9313C21.6 25.3125 19.6312 24.5813 19.6312 22.7813V20.7563L19.9687 20.5313C20.025 20.5313 20.9812 19.8563 20.9812 18.5625V18.0563L21.4313 17.8875C21.4875 17.8313 21.9375 17.6063 21.9375 16.9313C21.9375 16.7063 21.7688 16.4813 21.7125 16.425L21.4313 16.0875L21.5437 15.6938C21.5437 15.6938 21.9375 14.4563 21.9375 12.7688C21.9375 11.3625 21.15 10.0688 20.3063 10.0688H19.8562L19.6312 9.67505C19.4625 9.3938 18.7875 9.11255 17.8875 9.11255C15.3562 9.11255 13.8375 10.4625 13.8375 12.7688C13.8375 13.8375 14.2312 15.5813 14.2312 15.5813L14.3437 15.975L14.0625 16.2563C14.0625 16.2563 13.8375 16.5375 13.8375 16.8188C13.8375 17.2125 14.3437 17.7188 14.5687 17.9438L14.85 18.1688V18.5625C14.85 19.8 15.9187 20.475 15.9187 20.475L16.2562 20.7V22.725C16.2562 24.5813 14.175 25.5375 12.3187 26.325C11.5312 26.775 10.35 27.3375 10.125 27.7313Z" fill="white"/>
</svg>
